<?xml version="1.0" ?><svg data-name="Layer 1" id="Layer_1" viewBox="0 0 100 100" xmlns="http://www.w3.org/2000/svg"><title/><path d="M37.58575,38.99994,26,39a1,1,0,0,0,0,2l14-.00006a1.00144,1.00144,0,0,0,.99957-.99786L41,40V26a1,1,0,0,0-2,0V37.58575L6.70709,5.29285A1,1,0,0,0,5.29291,6.70709Z"/><path d="M93.29291,5.29285,61,37.58575V26a1,1,0,0,0-2,0V40l.00043.00208A1.00212,1.00212,0,0,0,60,40.99994H74A1,1,0,1,0,74,39H62.41418L94.70709,6.70709a1,1,0,1,0-1.41418-1.41424Z"/><path d="M6.70709,94.70709,39,62.41418V74a1,1,0,0,0,2,0V60h0a1.00265,1.00265,0,0,0-1.00031-1H26a1,1,0,0,0,0,2v-.00006H37.58582L5.29291,93.29285a1,1,0,0,0,1.41418,1.41424Z"/><path d="M62.41418,60.99994H74A1,1,0,1,0,74,59H60.00031A1.00273,1.00273,0,0,0,59,60h0V74a1,1,0,0,0,2,0V62.41418L93.29291,94.70709a1,1,0,0,0,1.41418-1.41424Z"/></svg>